<svg id="Layer_1" data-name="Layer 1" xmlns="http://www.w3.org/2000/svg" viewBox="0 0 120 120"><title>attach</title><path d="M104.67,49.67a4.93,4.93,0,0,0,6.83,0A29.11,29.11,0,0,0,70.33,8.5L8.5,70.33A29.17,29.17,0,0,0,49.83,111.5L91.67,69.67h0a17.24,17.24,0,0,0-.5-23.5,16.9,16.9,0,0,0-24,0L32.5,80.67a4.83,4.83,0,0,0,6.83,6.83L73.67,53.17A7.31,7.31,0,0,1,84,63.5h0L42.83,104.67a19.45,19.45,0,0,1-27.5-27.5L77.17,15.33a19.45,19.45,0,1,1,27.5,27.5A4.64,4.64,0,0,0,104.67,49.67Z" style="fill:#777"/></svg>