<svg id="Layer_1" data-name="Layer 1" xmlns="http://www.w3.org/2000/svg" viewBox="0 0 120 120"><title>communication</title><path d="M93.7,38.21A30.93,30.93,0,0,0,62.82,7.3H30.88A30.93,30.93,0,0,0,0,38.21v8.44A30.85,30.85,0,0,0,21,75.93l1.24.41-.65,1.13c-1.68,2.89-4,7.44-7,13.9a2.06,2.06,0,0,0,.4,2.31,2.08,2.08,0,0,0,2.3.42L53.52,77.55h9.3A30.93,30.93,0,0,0,93.7,46.65V38.21Zm-4.1,8.44A26.83,26.83,0,0,1,62.82,73.46H53.08a2,2,0,0,0-.85.19L20.76,88l1.36-2.71a79.09,79.09,0,0,1,4.57-8.25l.12-.16.17-.1a2,2,0,0,0-.71-3.77A26.76,26.76,0,0,1,4.1,46.65V38.21A26.83,26.83,0,0,1,30.88,11.4H62.82A26.83,26.83,0,0,1,89.6,38.21v8.44Z" style="fill:#6a6b79"/><path d="M22.71,37.32a5.82,5.82,0,1,0,5.82,5.82A5.83,5.83,0,0,0,22.71,37.32Z" style="fill:#6a6b79"/><path d="M71,37.32a5.82,5.82,0,1,0,5.82,5.82A5.83,5.83,0,0,0,71,37.32Z" style="fill:#6a6b79"/><path d="M46.85,37.32a5.82,5.82,0,1,0,5.82,5.82A5.83,5.83,0,0,0,46.85,37.32Z" style="fill:#6a6b79"/><path d="M41.5,86.72l-4.22,1.93A30.69,30.69,0,0,0,57.18,96h9.3l36.18,16.55a2.09,2.09,0,0,0,2.3-.42,2.06,2.06,0,0,0,.4-2.31c-3-6.46-5.29-11-7-13.9l-.65-1.13L99,94.35a30.85,30.85,0,0,0,21-29.29V56.62A30.92,30.92,0,0,0,94.9,26.3a34,34,0,0,1,1.33,4.54h0A34.42,34.42,0,0,1,97,38.21v8.44A34.26,34.26,0,0,1,62.83,80.89H54.25M92,93.75h0" style="fill:#6a6b79"/></svg>