<svg id="Layer_1" data-name="Layer 1" xmlns="http://www.w3.org/2000/svg" viewBox="0 0 120 120"><title>create</title><path d="M41.12,85.34l2.56-17.67,14.93,13Zm78.64-59.67a6.14,6.14,0,0,0-1-3c-.42-.68-1.54-2.33-3.11-2.3-2,0-50.65,57.34-50.65,57.34l-6.77-5.89.05-.05L88.7,37.82a3.32,3.32,0,0,0-4.94-4.43L53.34,67.3l-.1.14L45.9,61.06S97.58,6.33,97.84,4.55a3.11,3.11,0,0,0-2.05-3A8.64,8.64,0,0,0,92.53,1H12.18A12.09,12.09,0,0,0,.1,13.11v93.78A12.09,12.09,0,0,0,12.18,119H107.7a12.09,12.09,0,0,0,12.08-12.08V25.67Zm-6,81.23a6,6,0,0,1-6,6H12.18a6,6,0,0,1-6-6V13.11a6,6,0,0,1,6-6H85.67L38.88,59.23a3.17,3.17,0,0,0-.78,1.67L34,89.25a3.18,3.18,0,0,0,1.07,2.85,3.28,3.28,0,0,0,2.35.79,3.32,3.32,0,0,0,.65-.1l28.08-7.52a3.27,3.27,0,0,0,1.59-1l46-51.29Z" style="fill:#fff"/></svg>