<svg id="Layer_1" data-name="Layer 1" xmlns="http://www.w3.org/2000/svg" viewBox="0 0 120 120"><title>files</title><path d="M115,120H5a5,5,0,0,1-5-5V75a5,5,0,0,1,5-5H35a5,5,0,0,1,5,5V85H80V75a5,5,0,0,1,5-5h30a5,5,0,0,1,5,5v40A5,5,0,0,1,115,120ZM10,110H110V80H90V90a5,5,0,0,1-5,5H35a5,5,0,0,1-5-5V80H10Z" style="fill:#6a6b79"/><path d="M85,95H35a5,5,0,0,1-5-5V80H5A5,5,0,0,1,.11,74l15-70A5,5,0,0,1,20,0h80a5,5,0,0,1,4.89,4l15,70A5,5,0,0,1,115,80H90V90A5,5,0,0,1,85,95ZM40,85H80V75a5,5,0,0,1,5-5h23.82L96,10H24L11.18,70H35a5,5,0,0,1,5,5Z" style="fill:#6a6b79"/><path d="M90,65a5,5,0,0,1-5-5V55H35v5a5,5,0,0,1-10,0V50a5,5,0,0,1,5-5H90a5,5,0,0,1,5,5V60A5,5,0,0,1,90,65Z" style="fill:#6a6b79"/><path d="M80,40a5,5,0,0,1-5-5V30H45v5a5,5,0,0,1-10,0V25a5,5,0,0,1,5-5H80a5,5,0,0,1,5,5V35A5,5,0,0,1,80,40Z" style="fill:#6a6b79"/></svg>