<svg id="Layer_1" data-name="Layer 1" xmlns="http://www.w3.org/2000/svg" viewBox="0 0 120 120"><title>home</title><path d="M59.92,12a3.22,3.22,0,0,0-1.78.61l-57,45a3.1,3.1,0,0,0-.52,4.27,3.15,3.15,0,0,0,4.27.47L60,18.84l55.13,43.5a3,3,0,0,0,3.75-4.73L97.51,40.73V15a3,3,0,0,0-3-3h-12a3,3,0,0,0-3,3V26.53L61.89,12.61A3.43,3.43,0,0,0,59.92,12Zm25.59,6h6V36l-6-4.73Zm-63,34.36-6,4.73V105a3,3,0,0,0,3,3H48a3,3,0,0,0,3-3V78H69v27a3,3,0,0,0,3,3h28.5a3,3,0,0,0,3-3V57.09l-6-4.73V102H75V75a3,3,0,0,0-3-3H48a3,3,0,0,0-3,3v27H22.51Z" style="fill:#6a6b79"/></svg>