<svg id="Layer_1" data-name="Layer 1" xmlns="http://www.w3.org/2000/svg" viewBox="0 0 120 120"><title>inbox</title><path d="M119.78,71.06,104.87,8.82A13.39,13.39,0,0,0,92.06,0H28.21a14.06,14.06,0,0,0-13,9l-14.7,62a2.82,2.82,0,0,0-.42,1.68v35.71A11.39,11.39,0,0,0,11.61,120h96.61a11.39,11.39,0,0,0,11.55-11.55V73A2.84,2.84,0,0,0,119.78,71.06ZM60.13,85.13A18.6,18.6,0,0,1,41.65,67.7H12.87L25.27,12.6a3.16,3.16,0,0,1,2.94-2.1H92.06A3.16,3.16,0,0,1,95,12.6l12.39,55.1H78.61A18.6,18.6,0,0,1,60.13,85.13Z" style="fill:#777"/></svg>