<svg id="Layer_1" data-name="Layer 1" xmlns="http://www.w3.org/2000/svg" viewBox="0 0 120 120"><title>prototype</title><path d="M109.61,37.74a10.47,10.47,0,1,0-9.92-13.8H73.78L62.21,12.37a3.33,3.33,0,0,0-4.7,0L45.95,23.94H20.4a10.47,10.47,0,1,0,0,6.65H41.32C29,35.4,19.53,44.9,15.56,56.58H8a3.33,3.33,0,0,0-3.33,3.33V77.64A3.33,3.33,0,0,0,8,81H25.71A3.33,3.33,0,0,0,29,77.64V59.91a3.33,3.33,0,0,0-3.33-3.33h-3c4.52-10.74,14.81-19,27.51-21.75l7.33,7.33a3.33,3.33,0,0,0,4.7,0l7.23-7.22C81.93,37.8,92,46,96.5,56.58h-3a3.33,3.33,0,0,0-3.33,3.33V77.64A3.33,3.33,0,0,0,93.46,81h17.73a3.33,3.33,0,0,0,3.33-3.33V59.91a3.33,3.33,0,0,0-3.33-3.33h-7.58c-4-11.68-13.47-21.17-25.73-26H99.69A10.49,10.49,0,0,0,109.61,37.74ZM22.39,74.31H11.31V63.23H22.39Zm85.48,0H96.78V63.23h11.08Zm1.74-50.87a3.82,3.82,0,1,1-3.82,3.82A3.83,3.83,0,0,1,109.61,23.44ZM10.47,31.09a3.82,3.82,0,1,1,3.82-3.82A3.83,3.83,0,0,1,10.47,31.09Zm49.39,4L52,27.26l7.84-7.84,7.84,7.84Z" style="fill:#6a6b79"/><path d="M63,58.47a3.33,3.33,0,0,0-6,0L35.28,103.84a3.33,3.33,0,0,0,4.1,4.58l20.37-7.12,21,7.13a3.33,3.33,0,0,0,4.07-4.59ZM60.8,94.63a3.33,3.33,0,0,0-2.17,0L44.74,99.5,60,67.6l15.34,32Z" style="fill:#6a6b79"/></svg>