<svg id="Layer_1" data-name="Layer 1" xmlns="http://www.w3.org/2000/svg" viewBox="0 0 120 120"><title>schedule</title><path d="M5.21,68.27A3.06,3.06,0,0,1,5.63,65L16.79,51.52a3.4,3.4,0,0,1,5.21,0L33.17,65a3.09,3.09,0,0,1-2.37,5.07H26.06a37.7,37.7,0,1,0,6.56-22.93.89.89,0,0,1-.69.38.92.92,0,0,1-.78-.34l-7.44-8.92a.89.89,0,0,1,0-1.13A51.12,51.12,0,0,1,57.21,18v-5h-5a6.55,6.55,0,1,1-.1-13h23.1a6.55,6.55,0,0,1,.57,13.09H70.29v5A50.53,50.53,0,0,1,94.92,28.39l5.58-5.58a6.55,6.55,0,1,1,9.66,8.85q-.19.21-.4.4l-5.63,5.63a50.18,50.18,0,0,1,10.4,30.72A50.79,50.79,0,0,1,13,70H8A3.06,3.06,0,0,1,5.21,68.27ZM85,47.18a4.11,4.11,0,0,0-5.41-.36L65.06,58.34A10.2,10.2,0,1,0,73.75,67l11.5-14.44a4.11,4.11,0,0,0-.3-5.47Z" style="fill:#6a6b79"/></svg>